<svg width="512" height="512" viewBox="0 0 512 512" fill="none" xmlns="http://www.w3.org/2000/svg">
  <circle cx="256" cy="256" r="256" fill="#F1F8E9"/>
  
  <path d="M120 128C120 88.2355 152.235 56 192 56H320C359.765 56 392 88.2355 392 128V320C392 359.765 359.765 392 320 392H240L160 456V392H192H120C80.2355 392 48 359.765 48 320V128Z" fill="#80CBC4"/>
  
  <path d="M160 224H200V184H240V224H280V264H240V304H200V264H160V224Z" fill="#00695C"/>
  
  <path d="M288 224H328V264H288V224Z" fill="#B2DFDB"/>
</svg>
